PathFileType	4	(X/Y/Z)	C:\Users\WrightLab\Desktop\Jo\P4V119.trc
DataRate	CameraRate	NumFrames	NumMarkers	Units	OrigDataRate	OrigDataStartFrame	OrigNumFrames
100.00	100.00	       21	19	mm	100.00	349	       697
Frame#	Time	Headset_Front			Headset_Back			Headset_Left			Headset_Right			Left_Shoulder			Right_Shoulder			Sternum			C7			Left Elbow			Right Elbow			Left Wrist			Right Wrist			Left ASIS			Right ASIS			S2			Left Knee			Right Knee			Left Ankle			Right Ankle			
		X1	Y1	Z1	X2	Y2	Z2	X3	Y3	Z3	X4	Y4	Z4	X5	Y5	Z5	X6	Y6	Z6	X7	Y7	Z7	X8	Y8	Z8	X9	Y9	Z9	X10	Y10	Z10	X11	Y11	Z11	X12	Y12	Z12	X13	Y13	Z13	X14	Y14	Z14	X15	Y15	Z15	X16	Y16	Z16	X17	Y17	Z17	X18	Y18	Z18	X19	Y19	Z19	

349	3.480	-414.11911	1644.04651	101.09982	-366.12793	1611.63757	154.54413							-356.64911	1462.11780	-129.34520	-656.65558	1494.36658	-58.02299	-475.95154	1415.93225	8.39655	-521.24207	1511.05823	-152.22090	-256.75586	1116.51196	-40.86866	-835.40271	1164.89917	-41.85427	-320.12219	912.08881	188.71658	-835.48914	887.60968	88.21144	-376.64096	961.23181	-75.40321	-660.52106	1019.75842	85.69769	-594.79803	1017.20062	-164.42685	-489.32391	501.46744	-179.07478	-638.74774	564.97443	200.44135	-687.12976	110.11929	-456.08969	-625.89221	53.28581	246.21815	
350	3.490	-409.35272	1644.72449	111.30017	-362.74982	1613.58606	166.69597							-353.30722	1463.97229	-119.55789	-653.51715	1495.51318	-46.45953	-472.05472	1418.11792	19.81466	-518.63910	1512.77515	-141.49277	-253.29192	1117.70337	-33.20535	-830.96802	1165.60315	-26.13800	-315.18146	909.80176	195.06697	-831.16663	888.68689	101.95652	-372.56158	962.03278	-65.07358	-655.41315	1022.55011	96.75802	-591.00470	1019.36627	-152.83438	-482.15866	500.37625	-161.12473	-634.83118	567.40723	212.37366	-685.02966	118.52485	-449.08917	-626.19733	53.14295	247.71742	
351	3.500	-405.05954	1646.27612	121.48389	-359.58054	1614.90698	177.78700							-350.71802	1466.67688	-110.17892	-650.11407	1497.12354	-35.04037	-468.97650	1420.31348	30.75972	-515.62439	1514.02368	-130.30701	-249.33363	1119.26550	-26.35634	-826.55237	1167.17615	-11.39274	-309.37704	908.58997	200.50304	-826.29852	889.83398	120.31680	-368.77344	962.81604	-55.31069	-651.38269	1024.61267	108.84046	-587.13556	1020.84070	-141.95792	-474.36664	498.07166	-142.77850	-632.13324	570.13489	224.28256	-682.68500	129.51378	-442.10364	-625.89081	52.34630	248.98958	
352	3.510	-401.58124	1648.33240	132.14485	-356.09470	1617.03784	189.24579							-348.03070	1469.02222	-101.05544	-646.50958	1499.04236	-23.34677	-464.68579	1422.11230	41.82894	-512.90997	1515.70703	-119.86574	-245.49718	1120.87305	-19.11185	-821.50037	1168.53040	4.51559	-303.41025	908.46088	205.26532	-822.12244	890.94897	134.98257	-364.64407	963.08197	-44.21819	-647.02386	1026.86230	121.23799	-583.07477	1022.01770	-130.72745	-466.48837	495.44333	-122.50083	-629.27740	571.39392	236.82240	-681.43335	142.52907	-432.67279	-625.58099	52.79742	249.95969	
353	3.520	-396.79822	1650.21399	142.10132	-352.57990	1619.37378	201.23164							-344.35233	1471.54761	-89.45283	-642.06000	1501.05908	-12.09898	-459.22696	1424.65845	51.40595	-509.41840	1517.52930	-109.07181	-241.29518	1122.60681	-12.81157	-815.97363	1170.28430	19.25665	-296.90878	907.31189	210.51431	-816.09070	893.65198	150.31219	-360.60001	964.53162	-35.02841	-641.69098	1030.03711	133.99010	-579.00641	1022.82587	-118.79198	-458.11929	492.43176	-101.23862	-627.70789	572.80536	248.41164	-678.98871	156.22952	-421.82028	-624.60010	53.23260	250.64651	
354	3.530	-392.90057	1652.07556	152.44189	-348.97217	1621.62610	211.39551							-341.70908	1473.73401	-80.86089	-637.53027	1502.62585	0.60074	-454.83521	1427.16284	63.05097	-506.93036	1519.86572	-98.30441	-237.38216	1124.09644	-6.81227	-810.57935	1171.67456	34.23883	-289.87766	907.29077	215.39282	-810.20679	894.95691	164.70145	-358.21954	965.11060	-23.22690	-637.83313	1032.10828	145.23495	-574.97180	1024.07227	-108.60403	-448.27975	490.40662	-79.04000	-626.78412	573.36890	258.54391	-677.43091	170.40250	-407.18915	-623.86768	53.74796	251.74664	
355	3.540	-387.69528	1653.84802	162.19856							-523.12097	1686.93591	103.43892	-337.59250	1475.78601	-69.99838	-633.42889	1504.14624	12.57360	-450.23166	1429.20459	72.94964	-503.37460	1521.60706	-87.55566	-232.90942	1125.45105	-1.37929	-805.78522	1173.84375	48.41088	-282.72937	907.53162	219.83670	-803.40289	896.88428	180.00258	-354.47534	966.71143	-12.37272	-634.25708	1033.60327	156.82048	-571.02026	1024.87000	-98.11303	-437.76840	489.65207	-57.28354	-624.07233	572.13892	266.03287	-673.07745	186.59538	-391.25208	-623.02844	53.96068	252.14479	
356	3.550	-383.35599	1656.23633	172.18779							-518.91290	1688.31104	114.11804	-334.52759	1478.79578	-61.39689	-629.11182	1506.25562	25.05515	-445.79843	1431.23157	83.36674	-500.23364	1523.36121	-77.07603	-228.34016	1127.38733	3.52583	-800.73163	1175.56177	62.99243	-275.48856	907.63483	223.95110	-796.89520	898.33246	194.47694	-350.61139	968.68372	-2.69794	-631.18744	1035.01868	168.14880	-567.04901	1026.05969	-88.58229	-426.09842	488.76529	-33.72108	-619.83759	571.09027	271.62317	-669.61969	202.82193	-373.33563	-622.39380	53.99674	252.33200	
357	3.560	-379.22098	1658.06311	182.24179							-516.09314	1690.39514	125.22181	-331.81253	1480.62756	-53.08816	-624.79193	1507.93811	37.52208	-440.83740	1432.90503	93.73279	-497.11853	1524.98730	-66.68270	-223.81422	1129.01367	8.77239	-795.65729	1177.49915	77.46616	-267.69601	907.69342	227.65735	-789.99915	900.55841	210.59845	-346.74380	970.21124	7.49540	-627.27380	1035.93494	178.49371	-563.16492	1027.42908	-78.64647	-413.91595	489.84286	-12.78079	-613.94641	569.42963	275.65863	-664.86243	219.74857	-353.71207	-622.00476	54.57306	252.77551	
358	3.570	-374.13730	1660.25244	191.86000							-510.12390	1690.99304	134.60768	-328.65799	1482.45081	-44.04948	-619.99939	1509.89124	49.62150	-435.29562	1434.66760	102.43065	-494.07089	1527.38416	-56.00097	-219.16914	1130.48938	13.39731	-790.81519	1179.81396	91.94316	-259.71573	907.64642	231.58282	-782.29669	902.68286	225.47931	-342.52853	971.99493	16.80922	-623.32281	1037.30066	188.82440	-559.47302	1028.62585	-68.74200	-401.12109	490.95935	9.15624	-608.32593	567.34937	279.43097	-659.66821	234.43231	-331.58771	-621.03571	54.93181	252.58508	
359	3.580	-369.99002	1662.48816	201.85103							-506.09348	1693.60657	145.09537	-324.72583	1484.24243	-35.61127	-615.39172	1512.11023	61.42283	-430.35004	1436.58691	113.05885	-490.74362	1529.04016	-44.70799	-214.58363	1131.60168	18.18271	-785.61224	1181.29956	106.72649	-251.58696	908.45087	235.22667	-774.68335	905.36871	240.59857	-338.50327	974.45715	25.50117	-618.97278	1038.66516	199.33118	-555.53979	1030.06909	-57.96280	-387.88522	492.81525	29.23104	-604.36176	567.42255	283.05563	-654.20081	247.35735	-308.37796	-621.31012	55.20535	253.11075	
360	3.590	-364.05032	1663.84009	211.08977							-502.24805	1695.95898	155.62796	-321.00174	1486.04260	-26.94556	-610.91339	1514.32092	73.74458	-424.42801	1437.83435	121.99526	-487.36899	1531.46985	-34.71343	-209.59404	1132.93469	22.36728	-780.15656	1183.10486	121.67789	-243.74205	907.36938	237.85648	-766.88068	907.84314	255.94110	-334.31357	976.72180	33.93569	-614.34058	1040.44604	209.77803	-551.30261	1032.28162	-49.09547	-375.31915	495.28113	49.56303	-601.29340	568.26031	288.16486	-648.73682	257.75888	-284.74326	-620.86346	55.44152	253.17125	
361	3.600	-359.85757	1666.43640	220.92537							-496.01550	1697.10107	165.08174	-318.36502	1488.34229	-21.06003	-605.60413	1515.98523	85.30586	-419.28427	1439.74683	131.72156	-483.75696	1533.80566	-24.10922	-205.00652	1134.69910	26.58537	-774.99817	1185.12195	137.16628	-235.48994	907.68805	241.63939	-758.66132	910.39429	271.78537	-330.44418	979.79797	41.46715	-608.45319	1042.53577	218.97099	-547.20996	1034.24829	-40.57902	-362.13535	498.28275	69.84830	-598.65302	569.27435	294.59821	-643.14020	266.63397	-263.11929	-620.73260	55.54844	253.23598	
362	3.610	-354.27716	1667.83740	230.19536							-492.22968	1699.37671	175.52356	-314.14938	1489.95593	-11.82953	-600.97260	1517.98779	96.78993	-413.11841	1440.88184	140.28896	-480.13934	1535.82031	-13.90618	-199.65039	1136.00757	31.18439	-769.53564	1187.26221	151.17561	-227.65378	907.73004	244.41905	-749.82068	912.56689	286.79996	-325.98352	982.60889	50.03193	-603.38275	1044.46790	229.19804	-543.20612	1036.21594	-31.47341	-348.87201	502.38455	89.06520	-596.32983	570.17255	302.17908	-636.19855	273.01306	-240.65244	-620.14130	55.86077	253.29404	
363	3.620	-349.51294	1670.07190	239.74146							-486.67703	1700.69531	185.16118	-310.60782	1492.01416	-4.71727	-595.81482	1519.84802	109.01820	-408.23761	1443.37439	150.03838	-476.27289	1537.82959	-3.33363	-195.01372	1137.64783	34.33765	-763.86603	1189.14514	166.34567	-219.45995	907.54919	247.17288	-740.86517	915.77124	302.72104	-321.89386	985.26526	58.20121	-597.86530	1045.88794	238.94949	-539.43250	1038.11426	-22.01038	-335.68567	507.25790	108.24100	-593.60071	570.32458	309.36212	-628.33002	276.62042	-217.74313	-620.01117	56.28187	253.17792	
364	3.630	-343.65683	1672.00354	248.98114							-482.23740	1702.89587	195.31816	-306.26395	1493.34546	3.50290	-590.24597	1521.51501	120.66227	-401.45993	1444.49146	158.22798	-472.31522	1540.21167	6.65918	-190.15236	1139.20129	37.97816	-757.70898	1191.19336	180.66487	-210.09238	907.20569	248.11751	-731.77484	919.09906	317.76575	-317.36264	988.58563	64.33073	-592.12268	1047.21777	249.24672	-535.85394	1040.16907	-13.02186	-322.32574	513.23267	126.15633	-591.17578	570.47052	315.49786	-619.64203	278.82584	-194.74644	-619.76453	56.68668	253.16962	
365	3.640	-338.45941	1674.04541	258.50403							-476.19217	1704.44031	204.78432	-302.55533	1495.34607	11.76736	-585.16089	1523.71484	132.35814	-396.38693	1446.40771	167.00504	-468.28098	1542.35730	16.28936	-185.65082	1140.52759	40.96356	-751.80890	1193.57764	194.73053	-201.04457	907.48639	251.31944	-722.51917	921.63715	332.82739	-313.25327	991.14099	71.77991	-586.38080	1048.66064	259.21542	-532.44482	1042.20789	-4.21852	-308.74854	519.33246	144.30089	-587.62006	569.77820	320.20956	-609.38849	279.19131	-169.44865	-618.92035	57.10806	253.15181	
366	3.650	-333.36313	1676.23340	268.01480							-471.09650	1706.60950	214.63745	-298.23978	1497.08496	19.66419	-579.19183	1525.85840	143.50867	-390.04620	1447.87524	175.93724	-464.13275	1544.63623	25.85158	-181.16663	1141.89868	43.75217	-745.61920	1196.10059	209.10304	-193.28265	906.94897	251.82346	-712.32526	926.48474	347.27112	-309.17776	994.34741	77.88538	-580.26569	1049.17896	268.69717	-529.10522	1044.10376	4.16779	-294.18173	525.81403	162.14143	-583.16083	568.64435	324.09027	-598.23737	277.96573	-145.00830	-618.46185	57.63412	253.25270	
367	3.660	-326.61975	1677.49646	276.77786							-465.74365	1708.31433	224.25813	-294.28632	1498.78027	27.61675	-573.56012	1527.98242	154.59819	-384.24347	1449.50024	184.33972	-459.90421	1546.70508	35.95852	-176.62230	1142.98145	46.16205	-739.27844	1198.25952	222.73915	-185.11676	906.84698	253.64828	-703.02502	928.72638	362.57263	-304.92035	997.12555	85.19578	-574.16052	1049.92993	278.22806	-525.86456	1045.11487	14.05954	-280.45908	533.14478	178.77161	-579.54645	568.27496	327.73477	-587.39240	275.81543	-119.57314	-618.12585	57.94639	253.18018	
368	3.670	-321.40335	1679.18726	286.09079							-460.21216	1709.73035	233.79050	-290.42532	1500.89258	34.32354	-567.68402	1530.08020	165.61919	-378.29385	1451.26318	192.54858	-455.53345	1548.92151	45.56989	-172.15343	1144.96277	48.69004	-732.95978	1200.68774	235.92522	-175.91934	907.26489	255.38890	-692.75317	933.12689	377.63104	-300.82156	1000.31970	91.29485	-568.73389	1050.36060	288.81552	-522.53577	1046.61255	22.90087	-265.98639	541.01550	195.05264	-575.25256	566.74994	330.95142	-574.96667	272.26801	-94.34558	-617.68121	58.41151	253.17236	
369	3.680	-315.85577	1680.68530	295.31271							-454.29877	1710.91028	243.20706	-286.71274	1502.31921	40.31910	-561.50275	1532.11780	176.45993	-371.82184	1452.83081	200.94560	-451.03918	1550.61377	55.18811	-167.48950	1146.33240	50.68570	-726.39331	1202.85730	249.46478	-168.20677	907.62543	256.43124	-682.29218	936.84497	391.84009	-295.93503	1003.50659	96.47619	-562.83313	1051.00330	298.59357	-519.14801	1047.86121	31.74590	-251.53537	548.94849	210.41307	-571.02466	565.93774	334.54291	-562.65259	266.30887	-68.21506	-617.10010	58.70903	253.31342	
